<svg width="1440" height="292" id="Layer_1" viewBox="0 0 1440 292" fill="none" xmlns="http://www.w3.org/2000/svg">
<path fill-rule="evenodd" clip-rule="evenodd" d="M0 260.159L26.4 265.466C52.8 270.773 106.8 281.386 159.6 276.079C213.6 270.773 266.4 249.545 320.4 217.704C373.2 185.863 427.2 143.408 480 132.795C532.8 122.181 586.8 143.408 639.6 138.101C693.6 132.795 746.4 100.954 800.4 106.26C853.2 111.567 907.2 154.022 960 143.408C1012.8 132.795 1066.8 69.1124 1119.6 31.9645C1173.6 -5.18342 1226.4 -15.7971 1280.4 31.9645C1333.2 79.7261 1387.2 185.863 1413.6 238.932L1440 292V292H1413.6C1387.2 292 1333.2 292 1280.4 292C1226.4 292 1173.6 292 1119.6 292C1066.8 292 1012.8 292 960 292C907.2 292 853.2 292 800.4 292C746.4 292 693.6 292 639.6 292C586.8 292 532.8 292 480 292C427.2 292 373.2 292 320.4 292C266.4 292 213.6 292 159.6 292C106.8 292 52.8 292 26.4 292H0V260.159Z" fill="url(#paint0_linear)" fill-opacity="0.2"/>
<defs>
<linearGradient id="paint0_linear" x1="720" y1="0" x2="720" y2="292" gradientUnits="userSpaceOnUse">
<stop stop-color="#FFCD6B"/>
<stop offset="1" stop-color="white" stop-opacity="0.11"/>
</linearGradient>
</defs>
</svg>
